<?xml version="1.0" encoding="UTF-8" standalone="no"?>
<!DOCTYPE svg PUBLIC "-//W3C//DTD SVG 1.1//EN"
 "http://www.w3.org/Graphics/SVG/1.1/DTD/svg11.dtd">
<!-- Generated by graphviz version 2.38.0 (20140413.2041)
 -->
<!-- Title: %3 Pages: 1 -->
<svg width="705pt" height="1222pt"
 viewBox="0.00 0.00 705.08 1221.89" xmlns="http://www.w3.org/2000/svg" xmlns:xlink="http://www.w3.org/1999/xlink">
<g id="graph0" class="graph" transform="scale(1 1) rotate(0) translate(4 1217.89)">
<title>%3</title>
<polygon fill="white" stroke="none" points="-4,4 -4,-1217.89 701.083,-1217.89 701.083,4 -4,4"/>
<!-- Aa -->
<g id="node1" class="node"><title>Aa</title>
<ellipse fill="none" stroke="black" cx="397.778" cy="-1188.43" rx="137.529" ry="25.4118"/>
<text text-anchor="middle" x="397.778" y="-1191.23" font-family="Times,serif" font-size="14.00">Any chance the main repository</text>
<text text-anchor="middle" x="397.778" y="-1177.23" font-family="Times,serif" font-size="14.00"> has been updated?</text>
</g>
<!-- Ab -->
<g id="node2" class="node"><title>Ab</title>
<ellipse fill="none" stroke="black" cx="397.778" cy="-1094.97" rx="35.322" ry="18"/>
<text text-anchor="middle" x="397.778" y="-1090.77" font-family="Times,serif" font-size="14.00">git pull</text>
</g>
<!-- Aa&#45;&gt;Ab -->
<g id="edge5" class="edge"><title>Aa&#45;&gt;Ab</title>
<path fill="none" stroke="black" d="M397.778,-1162.92C397.778,-1150.73 397.778,-1135.94 397.778,-1123.38"/>
<polygon fill="black" stroke="black" points="401.278,-1123.02 397.778,-1113.02 394.278,-1123.02 401.278,-1123.02"/>
<text text-anchor="middle" x="407.967" y="-1133.77" font-family="Times,serif" font-size="14.00">Yes</text>
</g>
<!-- A -->
<g id="node3" class="node"><title>A</title>
<ellipse fill="none" stroke="black" cx="326.778" cy="-1014.52" rx="105.118" ry="25.4118"/>
<text text-anchor="middle" x="326.778" y="-1017.32" font-family="Times,serif" font-size="14.00">Edit and test your code.</text>
<text text-anchor="middle" x="326.778" y="-1003.32" font-family="Times,serif" font-size="14.00"> Do your edits work?</text>
</g>
<!-- Aa&#45;&gt;A -->
<g id="edge4" class="edge"><title>Aa&#45;&gt;A</title>
<path fill="none" stroke="black" d="M371.83,-1163.4C358.984,-1149.9 344.568,-1131.97 336.668,-1112.97 328.456,-1093.23 325.925,-1069.38 325.475,-1050.21"/>
<polygon fill="black" stroke="black" points="328.974,-1050.08 325.416,-1040.1 321.974,-1050.12 328.974,-1050.08"/>
<text text-anchor="middle" x="345.333" y="-1090.77" font-family="Times,serif" font-size="14.00">No</text>
</g>
<!-- Ab&#45;&gt;A -->
<g id="edge6" class="edge"><title>Ab&#45;&gt;A</title>
<path fill="none" stroke="black" d="M383.41,-1078.1C375.389,-1069.23 365.105,-1057.87 355.507,-1047.26"/>
<polygon fill="black" stroke="black" points="357.986,-1044.79 348.681,-1039.72 352.796,-1049.48 357.986,-1044.79"/>
</g>
<!-- A&#45;&gt;A -->
<g id="edge7" class="edge"><title>A&#45;&gt;A</title>
<path fill="none" stroke="black" d="M428.16,-1021.42C441.213,-1020.22 449.837,-1017.92 449.837,-1014.52 449.837,-1012.13 445.574,-1010.28 438.505,-1008.97"/>
<polygon fill="black" stroke="black" points="438.53,-1005.45 428.16,-1007.62 437.619,-1012.39 438.53,-1005.45"/>
<text text-anchor="middle" x="458.392" y="-1010.32" font-family="Times,serif" font-size="14.00">No</text>
</g>
<!-- B -->
<g id="node4" class="node"><title>B</title>
<ellipse fill="none" stroke="black" cx="312.778" cy="-921.063" rx="100.953" ry="18"/>
<text text-anchor="middle" x="312.778" y="-916.863" font-family="Times,serif" font-size="14.00">Did you make a new file?</text>
</g>
<!-- A&#45;&gt;B -->
<g id="edge1" class="edge"><title>A&#45;&gt;B</title>
<path fill="none" stroke="black" d="M323.026,-989.01C321.141,-976.692 318.851,-961.734 316.914,-949.084"/>
<polygon fill="black" stroke="black" points="320.36,-948.465 315.387,-939.109 313.441,-949.524 320.36,-948.465"/>
<text text-anchor="middle" x="330.967" y="-959.863" font-family="Times,serif" font-size="14.00">Yes</text>
</g>
<!-- Ba -->
<g id="node5" class="node"><title>Ba</title>
<ellipse fill="none" stroke="black" cx="372.778" cy="-817.708" rx="82.8705" ry="35.2113"/>
<text text-anchor="middle" x="372.778" y="-827.508" font-family="Times,serif" font-size="14.00">git add &#39;filename&#39;</text>
<text text-anchor="middle" x="372.778" y="-813.508" font-family="Times,serif" font-size="14.00"> Want to store this</text>
<text text-anchor="middle" x="372.778" y="-799.508" font-family="Times,serif" font-size="14.00"> version locally?</text>
</g>
<!-- B&#45;&gt;Ba -->
<g id="edge2" class="edge"><title>B&#45;&gt;Ba</title>
<path fill="none" stroke="black" d="M322.956,-902.87C329.712,-891.457 338.895,-875.944 347.538,-861.345"/>
<polygon fill="black" stroke="black" points="350.74,-862.806 352.822,-852.418 344.716,-859.24 350.74,-862.806"/>
<text text-anchor="middle" x="351.967" y="-873.863" font-family="Times,serif" font-size="14.00">Yes</text>
</g>
<!-- Bb -->
<g id="node6" class="node"><title>Bb</title>
<ellipse fill="none" stroke="black" cx="254.778" cy="-706.897" rx="142.425" ry="25.4118"/>
<text text-anchor="middle" x="254.778" y="-709.697" font-family="Times,serif" font-size="14.00">git commit &#45;m &#39;Commit message&#39;</text>
<text text-anchor="middle" x="254.778" y="-695.697" font-family="Times,serif" font-size="14.00"> Ready for others to see?</text>
</g>
<!-- B&#45;&gt;Bb -->
<g id="edge3" class="edge"><title>B&#45;&gt;Bb</title>
<path fill="none" stroke="black" d="M296.136,-903.227C284.776,-890.57 270.58,-872.187 263.668,-853.063 250.615,-816.952 249.933,-772.519 251.53,-742.392"/>
<polygon fill="black" stroke="black" points="255.026,-742.574 252.174,-732.37 248.04,-742.125 255.026,-742.574"/>
<text text-anchor="middle" x="272.333" y="-813.508" font-family="Times,serif" font-size="14.00">No</text>
</g>
<!-- Ba&#45;&gt;A -->
<g id="edge9" class="edge"><title>Ba&#45;&gt;A</title>
<path fill="none" stroke="black" d="M401.535,-851.115C419.623,-875.619 437.063,-909.906 422.778,-939.063 413.408,-958.189 396.493,-973.811 379.444,-985.717"/>
<polygon fill="black" stroke="black" points="377.489,-982.814 371.097,-991.263 381.363,-988.645 377.489,-982.814"/>
<text text-anchor="middle" x="437.333" y="-916.863" font-family="Times,serif" font-size="14.00">No</text>
</g>
<!-- Ba&#45;&gt;Bb -->
<g id="edge8" class="edge"><title>Ba&#45;&gt;Bb</title>
<path fill="none" stroke="black" d="M338.648,-785.235C322.854,-770.671 304.15,-753.424 288.418,-738.917"/>
<polygon fill="black" stroke="black" points="290.683,-736.245 280.959,-732.039 285.938,-741.391 290.683,-736.245"/>
<text text-anchor="middle" x="323.967" y="-753.152" font-family="Times,serif" font-size="14.00">Yes</text>
</g>
<!-- Bb&#45;&gt;Aa -->
<g id="edge12" class="edge"><title>Bb&#45;&gt;Aa</title>
<path fill="none" stroke="black" d="M227.124,-732.244C207.189,-752.593 183.778,-783.549 183.778,-816.708 183.778,-1095.97 183.778,-1095.97 183.778,-1095.97 183.778,-1139.26 221.26,-1162.34 264.851,-1174.53"/>
<polygon fill="black" stroke="black" points="263.975,-1177.92 274.533,-1177.05 265.733,-1171.15 263.975,-1177.92"/>
<text text-anchor="middle" x="192.333" y="-959.863" font-family="Times,serif" font-size="14.00">No</text>
</g>
<!-- Bc -->
<g id="node7" class="node"><title>Bc</title>
<ellipse fill="none" stroke="black" cx="254.778" cy="-605.985" rx="70.922" ry="25.4118"/>
<text text-anchor="middle" x="254.778" y="-608.785" font-family="Times,serif" font-size="14.00">git pull</text>
<text text-anchor="middle" x="254.778" y="-594.785" font-family="Times,serif" font-size="14.00"> Any conflicts?</text>
</g>
<!-- Bb&#45;&gt;Bc -->
<g id="edge10" class="edge"><title>Bb&#45;&gt;Bc</title>
<path fill="none" stroke="black" d="M254.778,-681.192C254.778,-669.272 254.778,-654.768 254.778,-641.755"/>
<polygon fill="black" stroke="black" points="258.278,-641.717 254.778,-631.717 251.278,-641.717 258.278,-641.717"/>
<text text-anchor="middle" x="264.967" y="-652.241" font-family="Times,serif" font-size="14.00">Yes</text>
</g>
<!-- Bd -->
<g id="node8" class="node"><title>Bd</title>
<ellipse fill="none" stroke="black" cx="251.778" cy="-505.073" rx="162.024" ry="25.4118"/>
<text text-anchor="middle" x="251.778" y="-507.873" font-family="Times,serif" font-size="14.00">Edit files to deconflict, retest.</text>
<text text-anchor="middle" x="251.778" y="-493.873" font-family="Times,serif" font-size="14.00"> &#160;&#160;&#160;&#160;&#160;&#160;&#160;git commit &#45;m &#39;Commit message&#39;</text>
</g>
<!-- Bc&#45;&gt;Bd -->
<g id="edge11" class="edge"><title>Bc&#45;&gt;Bd</title>
<path fill="none" stroke="black" d="M254.029,-580.28C253.667,-568.361 253.227,-553.856 252.833,-540.844"/>
<polygon fill="black" stroke="black" points="256.33,-540.695 252.528,-530.805 249.333,-540.907 256.33,-540.695"/>
<text text-anchor="middle" x="263.967" y="-551.329" font-family="Times,serif" font-size="14.00">Yes</text>
</g>
<!-- C -->
<g id="node9" class="node"><title>C</title>
<ellipse fill="none" stroke="black" cx="413.778" cy="-407.262" rx="97.8493" ry="35.2113"/>
<text text-anchor="middle" x="413.778" y="-417.062" font-family="Times,serif" font-size="14.00">git push origin master</text>
<text text-anchor="middle" x="413.778" y="-403.062" font-family="Times,serif" font-size="14.00">or git request&#45;pull</text>
<text text-anchor="middle" x="413.778" y="-389.062" font-family="Times,serif" font-size="14.00"> Done editing?</text>
</g>
<!-- Bc&#45;&gt;C -->
<g id="edge14" class="edge"><title>Bc&#45;&gt;C</title>
<path fill="none" stroke="black" d="M318.255,-594.458C355.531,-584.661 399.725,-565.961 422.778,-530.529 437.622,-507.714 435.39,-477.183 429.438,-452.338"/>
<polygon fill="black" stroke="black" points="432.755,-451.191 426.801,-442.427 425.99,-452.991 432.755,-451.191"/>
<text text-anchor="middle" x="443.333" y="-500.873" font-family="Times,serif" font-size="14.00">No</text>
</g>
<!-- Bd&#45;&gt;C -->
<g id="edge13" class="edge"><title>Bd&#45;&gt;C</title>
<path fill="none" stroke="black" d="M291.823,-480.389C310.843,-469.14 333.953,-455.473 354.918,-443.073"/>
<polygon fill="black" stroke="black" points="356.928,-445.951 363.754,-437.847 353.365,-439.926 356.928,-445.951"/>
</g>
<!-- C&#45;&gt;Aa -->
<g id="edge15" class="edge"><title>C&#45;&gt;Aa</title>
<path fill="none" stroke="black" d="M458.542,-438.942C477.276,-455.628 494.778,-478.153 494.778,-504.073 494.778,-1095.97 494.778,-1095.97 494.778,-1095.97 494.778,-1122.44 475.433,-1143.5 454.021,-1158.71"/>
<polygon fill="black" stroke="black" points="451.793,-1155.99 445.426,-1164.46 455.684,-1161.81 451.793,-1155.99"/>
<text text-anchor="middle" x="503.333" y="-813.508" font-family="Times,serif" font-size="14.00">No</text>
</g>
<!-- Ca -->
<g id="node10" class="node"><title>Ca</title>
<ellipse fill="none" stroke="black" cx="444.778" cy="-303.907" rx="93.756" ry="18"/>
<text text-anchor="middle" x="444.778" y="-299.707" font-family="Times,serif" font-size="14.00">Was that a big mistake?</text>
</g>
<!-- C&#45;&gt;Ca -->
<g id="edge16" class="edge"><title>C&#45;&gt;Ca</title>
<path fill="none" stroke="black" d="M424.273,-371.948C428.28,-358.847 432.787,-344.111 436.553,-331.798"/>
<polygon fill="black" stroke="black" points="439.937,-332.701 439.515,-322.115 433.243,-330.654 439.937,-332.701"/>
<text text-anchor="middle" x="444.967" y="-342.707" font-family="Times,serif" font-size="14.00">Yes</text>
</g>
<!-- Ca&#45;&gt;Aa -->
<g id="edge20" class="edge"><title>Ca&#45;&gt;Aa</title>
<path fill="none" stroke="black" d="M475.36,-321.018C503.131,-338.104 539.778,-367.915 539.778,-406.262 539.778,-1095.97 539.778,-1095.97 539.778,-1095.97 539.778,-1127.86 514.153,-1149.16 484.674,-1163.12"/>
<polygon fill="black" stroke="black" points="483.15,-1159.96 475.426,-1167.21 485.986,-1166.36 483.15,-1159.96"/>
<text text-anchor="middle" x="548.333" y="-753.152" font-family="Times,serif" font-size="14.00">No</text>
</g>
<!-- Cb -->
<g id="node11" class="node"><title>Cb</title>
<ellipse fill="none" stroke="black" cx="444.778" cy="-217.907" rx="52.1922" ry="18"/>
<text text-anchor="middle" x="444.778" y="-213.707" font-family="Times,serif" font-size="14.00">Really bad?</text>
</g>
<!-- Ca&#45;&gt;Cb -->
<g id="edge17" class="edge"><title>Ca&#45;&gt;Cb</title>
<path fill="none" stroke="black" d="M444.778,-285.502C444.778,-274.164 444.778,-259.134 444.778,-246.222"/>
<polygon fill="black" stroke="black" points="448.278,-246.002 444.778,-236.002 441.278,-246.002 448.278,-246.002"/>
<text text-anchor="middle" x="454.967" y="-256.707" font-family="Times,serif" font-size="14.00">Yes</text>
</g>
<!-- D -->
<g id="node12" class="node"><title>D</title>
<ellipse fill="none" stroke="black" cx="144.778" cy="-74.9533" rx="144.556" ry="25.4118"/>
<text text-anchor="middle" x="144.778" y="-77.7533" font-family="Times,serif" font-size="14.00">Let&#39;s restore the previous version.</text>
<text text-anchor="middle" x="144.778" y="-63.7533" font-family="Times,serif" font-size="14.00">git checkout &#45;&#45; &#39;filename&#39;</text>
</g>
<!-- Cb&#45;&gt;D -->
<g id="edge19" class="edge"><title>Cb&#45;&gt;D</title>
<path fill="none" stroke="black" d="M415.192,-203.006C366.02,-179.903 266.6,-133.191 202.979,-103.299"/>
<polygon fill="black" stroke="black" points="204.402,-100.1 193.862,-99.0154 201.425,-106.436 204.402,-100.1"/>
<text text-anchor="middle" x="373.333" y="-170.707" font-family="Times,serif" font-size="14.00">No</text>
</g>
<!-- Db -->
<g id="node13" class="node"><title>Db</title>
<ellipse fill="none" stroke="black" cx="543.778" cy="-74.9533" rx="153.11" ry="74.9067"/>
<text text-anchor="middle" x="543.778" y="-112.753" font-family="Times,serif" font-size="14.00">Let&#39;s go back to the main repository</text>
<text text-anchor="middle" x="543.778" y="-98.7533" font-family="Times,serif" font-size="14.00">git fetch origin</text>
<text text-anchor="middle" x="543.778" y="-84.7533" font-family="Times,serif" font-size="14.00"> &#160;&#160;&#160;&#160;&#160;&#160;&#160;git reset &#45;&#45;hard origin/master</text>
<text text-anchor="middle" x="543.778" y="-70.7533" font-family="Times,serif" font-size="14.00"> &#160;&#160;&#160;&#160;&#160;&#160;&#160;Or to your last commit</text>
<text text-anchor="middle" x="543.778" y="-56.7533" font-family="Times,serif" font-size="14.00"> &#160;&#160;&#160;&#160;&#160;&#160;&#160;git reset &#45;&#45;hard &#39;###&#39;</text>
<text text-anchor="middle" x="543.778" y="-42.7533" font-family="Times,serif" font-size="14.00"> &#160;&#160;&#160;&#160;&#160;&#160;&#160;where &#39;###&#39; comes from</text>
<text text-anchor="middle" x="543.778" y="-28.7533" font-family="Times,serif" font-size="14.00"> &#160;&#160;&#160;&#160;&#160;&#160;&#160;git log</text>
</g>
<!-- Cb&#45;&gt;Db -->
<g id="edge18" class="edge"><title>Cb&#45;&gt;Db</title>
<path fill="none" stroke="black" d="M456.523,-200.184C464.754,-188.465 476.414,-171.864 488.54,-154.599"/>
<polygon fill="black" stroke="black" points="491.634,-156.285 494.517,-146.09 485.905,-152.261 491.634,-156.285"/>
<text text-anchor="middle" x="488.967" y="-170.707" font-family="Times,serif" font-size="14.00">Yes</text>
</g>
<!-- D&#45;&gt;Aa -->
<g id="edge21" class="edge"><title>D&#45;&gt;Aa</title>
<path fill="none" stroke="black" d="M119.424,-100.402C95.0155,-126.676 61.778,-170.901 61.778,-216.907 61.778,-1095.97 61.778,-1095.97 61.778,-1095.97 61.778,-1140.01 170.603,-1163.55 264.386,-1175.65"/>
<polygon fill="black" stroke="black" points="264.214,-1179.16 274.572,-1176.93 265.086,-1172.21 264.214,-1179.16"/>
</g>
<!-- Db&#45;&gt;Aa -->
<g id="edge22" class="edge"><title>Db&#45;&gt;Aa</title>
<path fill="none" stroke="black" d="M568.307,-149.041C573.669,-170.64 577.778,-194.503 577.778,-216.907 577.778,-1095.97 577.778,-1095.97 577.778,-1095.97 577.778,-1133.06 547.036,-1155.11 510.962,-1168.22"/>
<polygon fill="black" stroke="black" points="509.534,-1165.01 501.181,-1171.53 511.775,-1171.64 509.534,-1165.01"/>
</g>
</g>
</svg>
